<svg xmlns="http://www.w3.org/2000/svg" version="1.1" xmlns:xlink="http://www.w3.org/1999/xlink" xmlns:svgjs="http://svgjs.dev/svgjs" width="1000" height="171" viewBox="0 0 1000 171"><g transform="matrix(1,0,0,1,-0.6060606060606233,0.3068711940451152)"><svg viewBox="0 0 396 68" data-background-color="#ffffff" preserveAspectRatio="xMidYMid meet" height="171" width="1000" xmlns="http://www.w3.org/2000/svg" xmlns:xlink="http://www.w3.org/1999/xlink"><g id="tight-bounds" transform="matrix(1,0,0,1,0.2400000000000091,-0.12203065026355375)"><svg viewBox="0 0 395.52 68.24384558255353" height="68.24384558255353" width="395.52"><g><svg viewBox="0 0 499.05347822165663 86.10772781450996" height="68.24384558255353" width="395.52"><g transform="matrix(1,0,0,1,103.53347822165667,24.60032520875671)"><svg viewBox="0 0 395.52 36.907077396996534" height="36.907077396996534" width="395.52"><g id="textblocktransform"><svg viewBox="0 0 395.52 36.907077396996534" height="36.907077396996534" width="395.52" id="textblock"><g><svg viewBox="0 0 395.52 36.907077396996534" height="36.907077396996534" width="395.52"><g transform="matrix(1,0,0,1,0,0)"><svg width="395.52" viewBox="2.299999952316284 -35.5 389.52001953125 36.349998474121094" height="36.907077396996534" data-palette-color="#39cccc"><g class="wordmark-text-0" data-fill-palette-color="primary" id="text-0"><path d="M26.3 0L17.95 0 12.3-13.35 12.05-13.35 10.15-13.35 10.15 0 2.3 0 2.3-34.65 11.55-34.65Q24.45-34.65 24.45-24.15L24.45-24.15Q24.45-21.1 23.18-18.65 21.9-16.2 19.2-14.85L19.2-14.85 26.3 0ZM10.15-18.8L11.75-18.8Q14.25-18.8 15.35-20.08 16.45-21.35 16.45-24.15L16.45-24.15Q16.45-26.7 15.28-27.9 14.1-29.1 11.5-29.1L11.5-29.1 10.15-29.1 10.15-18.8ZM28.15-34.65L46.45-34.65 45.65-29.05 36-29.05 36-20.35 44.5-20.35 44.5-14.85 36-14.85 36-5.7 46.3-5.7 46.3 0 28.15 0 28.15-34.65ZM77.4-34.65L79.45 0 72.05 0 71.75-13.75Q71.6-18.5 71.6-23L71.6-23Q71.6-26.15 71.65-27.65L71.65-27.65 67.8-3.7 60.45-3.7 56.4-27.7Q56.5-24.9 56.5-19.9L56.5-19.9Q56.5-15.85 56.45-13.65L56.45-13.65 56.15 0 48.8 0 50.9-34.65 60.6-34.65 64.25-10.95 67.55-34.65 77.4-34.65ZM83.09-34.65L101.39-34.65 100.59-29.05 90.94-29.05 90.94-20.35 99.44-20.35 99.44-14.85 90.94-14.85 90.94-5.7 101.24-5.7 101.24 0 83.09 0 83.09-34.65ZM132.34-34.65L134.39 0 126.99 0 126.69-13.75Q126.54-18.5 126.54-23L126.54-23Q126.54-26.15 126.59-27.65L126.59-27.65 122.74-3.7 115.39-3.7 111.34-27.7Q111.44-24.9 111.44-19.9L111.44-19.9Q111.44-15.85 111.39-13.65L111.39-13.65 111.09 0 103.74 0 105.84-34.65 115.54-34.65 119.19-10.95 122.49-34.65 132.34-34.65ZM153.64-18.35Q156.84-17.6 158.74-15.68 160.64-13.75 160.64-10.05L160.64-10.05Q160.64-4.85 157.14-2.43 153.64 0 147.59 0L147.59 0 138.04 0 138.04-34.65 146.49-34.65Q152.64-34.65 156.04-32.43 159.44-30.2 159.44-25.8L159.44-25.8Q159.44-22.85 157.84-20.98 156.24-19.1 153.64-18.35L153.64-18.35ZM147.24-29.1L145.89-29.1 145.89-20.7 147.39-20.7Q149.64-20.7 150.59-21.8 151.54-22.9 151.54-25.05L151.54-25.05Q151.54-27.05 150.51-28.08 149.49-29.1 147.24-29.1L147.24-29.1ZM147.69-5.7Q150.14-5.7 151.39-6.83 152.64-7.95 152.64-10.5L152.64-10.5Q152.64-13 151.49-14.23 150.34-15.45 147.84-15.45L147.84-15.45 145.89-15.45 145.89-5.7 147.69-5.7ZM163.69-34.65L181.99-34.65 181.19-29.05 171.54-29.05 171.54-20.35 180.04-20.35 180.04-14.85 171.54-14.85 171.54-5.7 181.84-5.7 181.84 0 163.69 0 163.69-34.65ZM209.28 0L200.93 0 195.28-13.35 195.03-13.35 193.13-13.35 193.13 0 185.28 0 185.28-34.65 194.53-34.65Q207.43-34.65 207.43-24.15L207.43-24.15Q207.43-21.1 206.16-18.65 204.88-16.2 202.18-14.85L202.18-14.85 209.28 0ZM193.13-18.8L194.73-18.8Q197.23-18.8 198.33-20.08 199.43-21.35 199.43-24.15L199.43-24.15Q199.43-26.7 198.26-27.9 197.08-29.1 194.48-29.1L194.48-29.1 193.13-29.1 193.13-18.8ZM209.08-34.65L231.43-34.65 230.63-28.65 223.98-28.65 223.98 0 216.13 0 216.13-28.65 209.08-28.65 209.08-34.65ZM256.58 0L248.73 0 248.73-14.95 241.48-14.95 241.48 0 233.63 0 233.63-34.65 241.48-34.65 241.48-21.1 248.73-21.1 248.73-34.65 256.58-34.65 256.58 0ZM261.18-34.65L279.48-34.65 278.68-29.05 269.02-29.05 269.02-20.35 277.52-20.35 277.52-14.85 269.02-14.85 269.02-5.7 279.32-5.7 279.32 0 261.18 0 261.18-34.65ZM298.37-18.35Q301.57-17.6 303.47-15.68 305.37-13.75 305.37-10.05L305.37-10.05Q305.37-4.85 301.87-2.43 298.37 0 292.32 0L292.32 0 282.77 0 282.77-34.65 291.22-34.65Q297.37-34.65 300.77-32.43 304.17-30.2 304.17-25.8L304.17-25.8Q304.17-22.85 302.57-20.98 300.97-19.1 298.37-18.35L298.37-18.35ZM291.97-29.1L290.62-29.1 290.62-20.7 292.12-20.7Q294.37-20.7 295.32-21.8 296.27-22.9 296.27-25.05L296.27-25.05Q296.27-27.05 295.25-28.08 294.22-29.1 291.97-29.1L291.97-29.1ZM292.42-5.7Q294.87-5.7 296.12-6.83 297.37-7.95 297.37-10.5L297.37-10.5Q297.37-13 296.22-14.23 295.07-15.45 292.57-15.45L292.57-15.45 290.62-15.45 290.62-5.7 292.42-5.7ZM320.62-35.5Q327.02-35.5 330.39-30.98 333.77-26.45 333.77-17.35L333.77-17.35Q333.77-8.35 330.37-3.75 326.97 0.85 320.62 0.85L320.62 0.85Q314.27 0.85 310.89-3.68 307.52-8.2 307.52-17.35L307.52-17.35Q307.52-26.35 310.89-30.93 314.27-35.5 320.62-35.5L320.62-35.5ZM320.62-29.75Q318.02-29.75 316.85-26.93 315.67-24.1 315.67-17.35L315.67-17.35Q315.67-12.65 316.19-9.95 316.72-7.25 317.8-6.08 318.87-4.9 320.62-4.9L320.62-4.9Q322.42-4.9 323.5-6.05 324.57-7.2 325.1-9.93 325.62-12.65 325.62-17.35L325.62-17.35Q325.62-24.15 324.44-26.95 323.27-29.75 320.62-29.75L320.62-29.75ZM349.67-35.5Q356.07-35.5 359.44-30.98 362.82-26.45 362.82-17.35L362.82-17.35Q362.82-8.35 359.42-3.75 356.02 0.85 349.67 0.85L349.67 0.85Q343.32 0.85 339.94-3.68 336.57-8.2 336.57-17.35L336.57-17.35Q336.57-26.35 339.94-30.93 343.32-35.5 349.67-35.5L349.67-35.5ZM349.67-29.75Q347.07-29.75 345.89-26.93 344.72-24.1 344.72-17.35L344.72-17.35Q344.72-12.65 345.24-9.95 345.77-7.25 346.84-6.08 347.92-4.9 349.67-4.9L349.67-4.9Q351.47-4.9 352.54-6.05 353.62-7.2 354.14-9.93 354.67-12.65 354.67-17.35L354.67-17.35Q354.67-24.15 353.49-26.95 352.32-29.75 349.67-29.75L349.67-29.75ZM366.52-34.65L374.37-34.65 374.37 0 366.52 0 366.52-34.65ZM383.32-34.65L391.07-34.65 382.47-19.05 391.82 0 383.27 0 374.62-18.5 383.32-34.65Z" fill="#39cccc" data-fill-palette-color="primary"></path></g></svg></g></svg></g></svg></g></svg></g><g><svg viewBox="0 0 86.10772781450996 86.10772781450996" height="86.10772781450996" width="86.10772781450996"><g><svg></svg></g><g id="icon-0"><svg viewBox="0 0 86.10772781450996 86.10772781450996" height="86.10772781450996" width="86.10772781450996"><g><path d="M0 43.054c0-23.778 19.276-43.054 43.054-43.054 23.778 0 43.054 19.276 43.054 43.054 0 23.778-19.276 43.054-43.054 43.054-23.778 0-43.054-19.276-43.054-43.054zM43.054 82.779c21.94 0 39.726-17.786 39.725-39.725 0-21.94-17.786-39.726-39.725-39.726-21.94 0-39.726 17.786-39.726 39.726 0 21.94 17.786 39.726 39.726 39.725z" data-fill-palette-color="accent" fill="#ffdc00" stroke="transparent"></path></g><g transform="matrix(1,0,0,1,18.37979057304852,24.44245692115836)"><svg viewBox="0 0 49.348146668412916 37.22281397219324" height="37.22281397219324" width="49.348146668412916"><g><svg version="1.1" xmlns="http://www.w3.org/2000/svg" xmlns:xlink="http://www.w3.org/1999/xlink" x="0" y="0" viewBox="0 0 100 75.42900085449219" enable-background="new 0 0 100 75.429" xml:space="preserve" width="49.348146668412916" height="37.22281397219324" class="icon-s-0" data-fill-palette-color="accent" id="s-0"><path fill="#ffdc00" d="M96.721 75.429c-9.014 0-7.104-9.02-22.957-9.02-15.852 0-20.295 9.02-23.776 9.02s-7.925-9.02-23.777-9.02c-15.85 0-13.949 9.02-22.957 9.02C1.592 75.429 0 74.243 0 72.192V12.804C0 12.804 9.677 0 26.21 0c16.536 0 23.91 9.092 23.91 9.092S57.092 0 73.764 0C94.33 0 100 13.116 100 13.116v59.034C100 74.198 98.578 75.429 96.721 75.429zM95.08 14.757c0 0-4.919-9.839-21.316-9.839-17.08 0-19.931 9.741-23.644 9.741-3.714 0-6.105-9.741-23.91-9.741-13.585 0-21.315 9.839-21.315 9.839V68.87c0 1.023 0.614 1.64 1.64 1.64 0 0 4.481-9.021 19.676-9.021 16.563 0 23.91 8.848 23.91 8.848s7.109-8.848 23.643-8.848c14.897 0 19.678 9.021 19.678 9.021 1.025 0 1.641-0.616 1.641-1.64V14.757H95.08z" data-fill-palette-color="accent"></path><rect x="48.348" y="19.266" fill="#ffdc00" width="3.28" height="38.534" data-fill-palette-color="accent"></rect></svg></g></svg></g></svg></g></svg></g></svg></g><defs></defs></svg><rect width="395.52" height="68.24384558255353" fill="none" stroke="none" visibility="hidden"></rect></g></svg></g></svg>